<svg width="54" height="15" viewBox="0 0 54 15" fill="none" xmlns="http://www.w3.org/2000/svg">
<path d="M54.0003 8.23622C53.1162 8.23617 52.2777 8.40475 51.4847 8.74195C50.7008 9.08826 50.0172 9.55307 49.4338 10.1364C48.8505 10.7197 48.3901 11.4032 48.0529 12.1871C47.7156 12.9709 47.5469 13.8094 47.5469 14.7027L46.4668 14.7026C46.4668 14.0099 46.5535 13.3491 46.7267 12.7202C46.909 12.0822 47.1597 11.4875 47.4787 10.9361C47.7978 10.3847 48.1851 9.87654 48.6409 9.41172C49.0875 8.95601 49.5889 8.56411 50.1449 8.23602L0.160495 8.2334L0.160551 7.16699L50.1449 7.16961C49.589 6.83234 49.0877 6.43583 48.6411 5.98008C48.1854 5.52432 47.798 5.02072 47.4791 4.46927C47.1601 3.91783 46.9095 3.32309 46.7272 2.68506C46.554 2.04703 46.4675 1.38621 46.4675 0.70262L47.5476 0.702676C47.5476 1.59591 47.7161 2.43446 48.0533 3.21833C48.3905 4.0022 48.8508 4.68582 49.4341 5.26918C50.0174 5.85255 50.701 6.31287 51.4848 6.65015C52.2777 6.99654 53.1163 7.16976 54.0004 7.16981L54.0277 7.16981L54.0277 8.23622L54.0003 8.23622Z" fill="#111111"/>
</svg>
