<svg width="203" height="31" viewBox="0 0 203 31" fill="none" xmlns="http://www.w3.org/2000/svg">
<g clip-path="url(#clip0_98_9232)">
<path d="M0.470703 25.7853C5.85694 19.6285 23.3785 7.48104 50.2986 14.5589C65.1786 18.4727 77.6007 36.3995 121.156 26.7386C167.261 16.5108 201.305 -4.70525 229.662 3.22298C229.662 3.22298 235.56 5.48708 238.512 9.02439C241.465 12.5616 249.676 17.8504 260.655 14.56C271.635 11.2697 292.375 5.0719 338.155 11.2387C383.935 17.4054 492.047 11.2387 492.047 11.2387H535.226C535.226 11.2387 608.145 9.60785 619.368 9.02439H1019.05H1141.94H1501.75" stroke="#111111" stroke-width="2.21428"/>
</g>
<defs>
<clipPath id="clip0_98_9232">
<rect width="1501.28" height="30.9999" fill="white" transform="translate(0.470703 0.379883)"/>
</clipPath>
</defs>
</svg>
