<svg width="103" height="224" viewBox="0 0 103 224" fill="none" xmlns="http://www.w3.org/2000/svg">
<g clip-path="url(#clip0_98_9037)">
<path fill-rule="evenodd" clip-rule="evenodd" d="M101.5 203.19C100.672 203.19 100 202.518 100 201.69C100 200.862 100.672 200.19 101.5 200.19C102.328 200.19 103 200.862 103 201.69C103 202.518 102.328 203.19 101.5 203.19ZM101.5 183.19C100.672 183.19 100 182.518 100 181.69C100 180.862 100.672 180.19 101.5 180.19C102.328 180.19 103 180.862 103 181.69C103 182.518 102.328 183.19 101.5 183.19ZM101.5 163.19C100.672 163.19 100 162.518 100 161.69C100 160.862 100.672 160.19 101.5 160.19C102.328 160.19 103 160.862 103 161.69C103 162.518 102.328 163.19 101.5 163.19ZM101.5 143.19C100.672 143.19 100 142.518 100 141.69C100 140.862 100.672 140.19 101.5 140.19C102.328 140.19 103 140.862 103 141.69C103 142.518 102.328 143.19 101.5 143.19ZM101.5 123.19C100.672 123.19 100 122.518 100 121.69C100 120.862 100.672 120.19 101.5 120.19C102.328 120.19 103 120.862 103 121.69C103 122.518 102.328 123.19 101.5 123.19ZM101.5 103.19C100.672 103.19 100 102.518 100 101.69C100 100.862 100.672 100.19 101.5 100.19C102.328 100.19 103 100.862 103 101.69C103 102.518 102.328 103.19 101.5 103.19ZM101.5 83.1899C100.672 83.1899 100 82.5179 100 81.6899C100 80.8619 100.672 80.1899 101.5 80.1899C102.328 80.1899 103 80.8619 103 81.6899C103 82.5179 102.328 83.1899 101.5 83.1899ZM101.5 63.1899C100.672 63.1899 100 62.5179 100 61.6899C100 60.8619 100.672 60.1899 101.5 60.1899C102.328 60.1899 103 60.8619 103 61.6899C103 62.5179 102.328 63.1899 101.5 63.1899ZM101.5 43.1899C100.672 43.1899 100 42.5179 100 41.6899C100 40.8619 100.672 40.1899 101.5 40.1899C102.328 40.1899 103 40.8619 103 41.6899C103 42.5179 102.328 43.1899 101.5 43.1899ZM101.5 23.1899C100.672 23.1899 100 22.5179 100 21.6899C100 20.8619 100.672 20.1899 101.5 20.1899C102.328 20.1899 103 20.8619 103 21.6899C103 22.5179 102.328 23.1899 101.5 23.1899ZM101.5 3.18994C100.672 3.18994 100 2.51794 100 1.68994C100 0.861941 100.672 0.189941 101.5 0.189941C102.328 0.189941 103 0.861941 103 1.68994C103 2.51794 102.328 3.18994 101.5 3.18994ZM81.5 223.19C80.672 223.19 80 222.518 80 221.69C80 220.862 80.672 220.19 81.5 220.19C82.328 220.19 83 220.862 83 221.69C83 222.518 82.328 223.19 81.5 223.19ZM81.5 203.19C80.672 203.19 80 202.518 80 201.69C80 200.862 80.672 200.19 81.5 200.19C82.328 200.19 83 200.862 83 201.69C83 202.518 82.328 203.19 81.5 203.19ZM81.5 183.19C80.672 183.19 80 182.518 80 181.69C80 180.862 80.672 180.19 81.5 180.19C82.328 180.19 83 180.862 83 181.69C83 182.518 82.328 183.19 81.5 183.19ZM81.5 163.19C80.672 163.19 80 162.518 80 161.69C80 160.862 80.672 160.19 81.5 160.19C82.328 160.19 83 160.862 83 161.69C83 162.518 82.328 163.19 81.5 163.19ZM81.5 143.19C80.672 143.19 80 142.518 80 141.69C80 140.862 80.672 140.19 81.5 140.19C82.328 140.19 83 140.862 83 141.69C83 142.518 82.328 143.19 81.5 143.19ZM81.5 123.19C80.672 123.19 80 122.518 80 121.69C80 120.862 80.672 120.19 81.5 120.19C82.328 120.19 83 120.862 83 121.69C83 122.518 82.328 123.19 81.5 123.19ZM81.5 103.19C80.672 103.19 80 102.518 80 101.69C80 100.862 80.672 100.19 81.5 100.19C82.328 100.19 83 100.862 83 101.69C83 102.518 82.328 103.19 81.5 103.19ZM81.5 83.1899C80.672 83.1899 80 82.5179 80 81.6899C80 80.8619 80.672 80.1899 81.5 80.1899C82.328 80.1899 83 80.8619 83 81.6899C83 82.5179 82.328 83.1899 81.5 83.1899ZM81.5 63.1899C80.672 63.1899 80 62.5179 80 61.6899C80 60.8619 80.672 60.1899 81.5 60.1899C82.328 60.1899 83 60.8619 83 61.6899C83 62.5179 82.328 63.1899 81.5 63.1899ZM81.5 43.1899C80.672 43.1899 80 42.5179 80 41.6899C80 40.8619 80.672 40.1899 81.5 40.1899C82.328 40.1899 83 40.8619 83 41.6899C83 42.5179 82.328 43.1899 81.5 43.1899ZM81.5 23.1899C80.672 23.1899 80 22.5179 80 21.6899C80 20.8619 80.672 20.1899 81.5 20.1899C82.328 20.1899 83 20.8619 83 21.6899C83 22.5179 82.328 23.1899 81.5 23.1899ZM81.5 3.18994C80.672 3.18994 80 2.51794 80 1.68994C80 0.861941 80.672 0.189941 81.5 0.189941C82.328 0.189941 83 0.861941 83 1.68994C83 2.51794 82.328 3.18994 81.5 3.18994ZM61.5 223.19C60.672 223.19 60 222.518 60 221.69C60 220.862 60.672 220.19 61.5 220.19C62.328 220.19 63 220.862 63 221.69C63 222.518 62.328 223.19 61.5 223.19ZM61.5 203.19C60.672 203.19 60 202.518 60 201.69C60 200.862 60.672 200.19 61.5 200.19C62.328 200.19 63 200.862 63 201.69C63 202.518 62.328 203.19 61.5 203.19ZM61.5 183.19C60.672 183.19 60 182.518 60 181.69C60 180.862 60.672 180.19 61.5 180.19C62.328 180.19 63 180.862 63 181.69C63 182.518 62.328 183.19 61.5 183.19ZM61.5 163.19C60.672 163.19 60 162.518 60 161.69C60 160.862 60.672 160.19 61.5 160.19C62.328 160.19 63 160.862 63 161.69C63 162.518 62.328 163.19 61.5 163.19ZM61.5 143.19C60.672 143.19 60 142.518 60 141.69C60 140.862 60.672 140.19 61.5 140.19C62.328 140.19 63 140.862 63 141.69C63 142.518 62.328 143.19 61.5 143.19ZM61.5 123.19C60.672 123.19 60 122.518 60 121.69C60 120.862 60.672 120.19 61.5 120.19C62.328 120.19 63 120.862 63 121.69C63 122.518 62.328 123.19 61.5 123.19ZM61.5 103.19C60.672 103.19 60 102.518 60 101.69C60 100.862 60.672 100.19 61.5 100.19C62.328 100.19 63 100.862 63 101.69C63 102.518 62.328 103.19 61.5 103.19ZM61.5 83.1899C60.672 83.1899 60 82.5179 60 81.6899C60 80.8619 60.672 80.1899 61.5 80.1899C62.328 80.1899 63 80.8619 63 81.6899C63 82.5179 62.328 83.1899 61.5 83.1899ZM61.5 63.1899C60.672 63.1899 60 62.5179 60 61.6899C60 60.8619 60.672 60.1899 61.5 60.1899C62.328 60.1899 63 60.8619 63 61.6899C63 62.5179 62.328 63.1899 61.5 63.1899ZM61.5 43.1899C60.672 43.1899 60 42.5179 60 41.6899C60 40.8619 60.672 40.1899 61.5 40.1899C62.328 40.1899 63 40.8619 63 41.6899C63 42.5179 62.328 43.1899 61.5 43.1899ZM61.5 23.1899C60.672 23.1899 60 22.5179 60 21.6899C60 20.8619 60.672 20.1899 61.5 20.1899C62.328 20.1899 63 20.8619 63 21.6899C63 22.5179 62.328 23.1899 61.5 23.1899ZM61.5 3.18994C60.672 3.18994 60 2.51794 60 1.68994C60 0.861941 60.672 0.189941 61.5 0.189941C62.328 0.189941 63 0.861941 63 1.68994C63 2.51794 62.328 3.18994 61.5 3.18994ZM41.5 223.19C40.672 223.19 40 222.518 40 221.69C40 220.862 40.672 220.19 41.5 220.19C42.328 220.19 43 220.862 43 221.69C43 222.518 42.328 223.19 41.5 223.19ZM41.5 203.19C40.672 203.19 40 202.518 40 201.69C40 200.862 40.672 200.19 41.5 200.19C42.328 200.19 43 200.862 43 201.69C43 202.518 42.328 203.19 41.5 203.19ZM41.5 183.19C40.672 183.19 40 182.518 40 181.69C40 180.862 40.672 180.19 41.5 180.19C42.328 180.19 43 180.862 43 181.69C43 182.518 42.328 183.19 41.5 183.19ZM41.5 163.19C40.672 163.19 40 162.518 40 161.69C40 160.862 40.672 160.19 41.5 160.19C42.328 160.19 43 160.862 43 161.69C43 162.518 42.328 163.19 41.5 163.19ZM41.5 143.19C40.672 143.19 40 142.518 40 141.69C40 140.862 40.672 140.19 41.5 140.19C42.328 140.19 43 140.862 43 141.69C43 142.518 42.328 143.19 41.5 143.19ZM41.5 123.19C40.672 123.19 40 122.518 40 121.69C40 120.862 40.672 120.19 41.5 120.19C42.328 120.19 43 120.862 43 121.69C43 122.518 42.328 123.19 41.5 123.19ZM41.5 103.19C40.672 103.19 40 102.518 40 101.69C40 100.862 40.672 100.19 41.5 100.19C42.328 100.19 43 100.862 43 101.69C43 102.518 42.328 103.19 41.5 103.19ZM41.5 83.1899C40.672 83.1899 40 82.5179 40 81.6899C40 80.8619 40.672 80.1899 41.5 80.1899C42.328 80.1899 43 80.8619 43 81.6899C43 82.5179 42.328 83.1899 41.5 83.1899ZM41.5 63.1899C40.672 63.1899 40 62.5179 40 61.6899C40 60.8619 40.672 60.1899 41.5 60.1899C42.328 60.1899 43 60.8619 43 61.6899C43 62.5179 42.328 63.1899 41.5 63.1899ZM41.5 43.1899C40.672 43.1899 40 42.5179 40 41.6899C40 40.8619 40.672 40.1899 41.5 40.1899C42.328 40.1899 43 40.8619 43 41.6899C43 42.5179 42.328 43.1899 41.5 43.1899ZM41.5 23.1899C40.672 23.1899 40 22.5179 40 21.6899C40 20.8619 40.672 20.1899 41.5 20.1899C42.328 20.1899 43 20.8619 43 21.6899C43 22.5179 42.328 23.1899 41.5 23.1899ZM41.5 3.18994C40.672 3.18994 40 2.51794 40 1.68994C40 0.861941 40.672 0.189941 41.5 0.189941C42.328 0.189941 43 0.861941 43 1.68994C43 2.51794 42.328 3.18994 41.5 3.18994ZM21.5 223.19C20.672 223.19 20 222.518 20 221.69C20 220.862 20.672 220.19 21.5 220.19C22.328 220.19 23 220.862 23 221.69C23 222.518 22.328 223.19 21.5 223.19ZM21.5 203.19C20.672 203.19 20 202.518 20 201.69C20 200.862 20.672 200.19 21.5 200.19C22.328 200.19 23 200.862 23 201.69C23 202.518 22.328 203.19 21.5 203.19ZM21.5 183.19C20.672 183.19 20 182.518 20 181.69C20 180.862 20.672 180.19 21.5 180.19C22.328 180.19 23 180.862 23 181.69C23 182.518 22.328 183.19 21.5 183.19ZM21.5 163.19C20.672 163.19 20 162.518 20 161.69C20 160.862 20.672 160.19 21.5 160.19C22.328 160.19 23 160.862 23 161.69C23 162.518 22.328 163.19 21.5 163.19ZM21.5 143.19C20.672 143.19 20 142.518 20 141.69C20 140.862 20.672 140.19 21.5 140.19C22.328 140.19 23 140.862 23 141.69C23 142.518 22.328 143.19 21.5 143.19ZM21.5 123.19C20.672 123.19 20 122.518 20 121.69C20 120.862 20.672 120.19 21.5 120.19C22.328 120.19 23 120.862 23 121.69C23 122.518 22.328 123.19 21.5 123.19ZM21.5 103.19C20.672 103.19 20 102.518 20 101.69C20 100.862 20.672 100.19 21.5 100.19C22.328 100.19 23 100.862 23 101.69C23 102.518 22.328 103.19 21.5 103.19ZM21.5 83.1899C20.672 83.1899 20 82.5179 20 81.6899C20 80.8619 20.672 80.1899 21.5 80.1899C22.328 80.1899 23 80.8619 23 81.6899C23 82.5179 22.328 83.1899 21.5 83.1899ZM21.5 63.1899C20.672 63.1899 20 62.5179 20 61.6899C20 60.8619 20.672 60.1899 21.5 60.1899C22.328 60.1899 23 60.8619 23 61.6899C23 62.5179 22.328 63.1899 21.5 63.1899ZM21.5 43.1899C20.672 43.1899 20 42.5179 20 41.6899C20 40.8619 20.672 40.1899 21.5 40.1899C22.328 40.1899 23 40.8619 23 41.6899C23 42.5179 22.328 43.1899 21.5 43.1899ZM21.5 23.1899C20.672 23.1899 20 22.5179 20 21.6899C20 20.8619 20.672 20.1899 21.5 20.1899C22.328 20.1899 23 20.8619 23 21.6899C23 22.5179 22.328 23.1899 21.5 23.1899ZM21.5 3.18994C20.672 3.18994 20 2.51794 20 1.68994C20 0.861941 20.672 0.189941 21.5 0.189941C22.328 0.189941 23 0.861941 23 1.68994C23 2.51794 22.328 3.18994 21.5 3.18994ZM1.5 223.19C0.672 223.19 0 222.518 0 221.69C0 220.862 0.672 220.19 1.5 220.19C2.328 220.19 3 220.862 3 221.69C3 222.518 2.328 223.19 1.5 223.19ZM1.5 203.19C0.672 203.19 0 202.518 0 201.69C0 200.862 0.672 200.19 1.5 200.19C2.328 200.19 3 200.862 3 201.69C3 202.518 2.328 203.19 1.5 203.19ZM1.5 183.19C0.672 183.19 0 182.518 0 181.69C0 180.862 0.672 180.19 1.5 180.19C2.328 180.19 3 180.862 3 181.69C3 182.518 2.328 183.19 1.5 183.19ZM1.5 163.19C0.672 163.19 0 162.518 0 161.69C0 160.862 0.672 160.19 1.5 160.19C2.328 160.19 3 160.862 3 161.69C3 162.518 2.328 163.19 1.5 163.19ZM1.5 143.19C0.672 143.19 0 142.518 0 141.69C0 140.862 0.672 140.19 1.5 140.19C2.328 140.19 3 140.862 3 141.69C3 142.518 2.328 143.19 1.5 143.19ZM1.5 123.19C0.672 123.19 0 122.518 0 121.69C0 120.862 0.672 120.19 1.5 120.19C2.328 120.19 3 120.862 3 121.69C3 122.518 2.328 123.19 1.5 123.19ZM1.5 103.19C0.672 103.19 0 102.518 0 101.69C0 100.862 0.672 100.19 1.5 100.19C2.328 100.19 3 100.862 3 101.69C3 102.518 2.328 103.19 1.5 103.19ZM1.5 83.1899C0.672 83.1899 0 82.5179 0 81.6899C0 80.8619 0.672 80.1899 1.5 80.1899C2.328 80.1899 3 80.8619 3 81.6899C3 82.5179 2.328 83.1899 1.5 83.1899ZM1.5 63.1899C0.672 63.1899 0 62.5179 0 61.6899C0 60.8619 0.672 60.1899 1.5 60.1899C2.328 60.1899 3 60.8619 3 61.6899C3 62.5179 2.328 63.1899 1.5 63.1899ZM1.5 43.1899C0.672 43.1899 0 42.5179 0 41.6899C0 40.8619 0.672 40.1899 1.5 40.1899C2.328 40.1899 3 40.8619 3 41.6899C3 42.5179 2.328 43.1899 1.5 43.1899ZM1.5 23.1899C0.672 23.1899 0 22.5179 0 21.6899C0 20.8619 0.672 20.1899 1.5 20.1899C2.328 20.1899 3 20.8619 3 21.6899C3 22.5179 2.328 23.1899 1.5 23.1899ZM1.5 3.18994C0.672 3.18994 0 2.51794 0 1.68994C0 0.861941 0.672 0.189941 1.5 0.189941C2.328 0.189941 3 0.861941 3 1.68994C3 2.51794 2.328 3.18994 1.5 3.18994ZM101.5 220.19C102.328 220.19 103 220.862 103 221.69C103 222.518 102.328 223.19 101.5 223.19C100.672 223.19 100 222.518 100 221.69C100 220.862 100.672 220.19 101.5 220.19Z" fill="#E0E0E0"/>
</g>
<defs>
<clipPath id="clip0_98_9037">
<rect width="103" height="223" fill="white" transform="translate(0 0.189941)"/>
</clipPath>
</defs>
</svg>
