<svg width="159" height="75" viewBox="0 0 159 75" fill="none" xmlns="http://www.w3.org/2000/svg">
<g clip-path="url(#clip0_98_9047)">
<path fill-rule="evenodd" clip-rule="evenodd" d="M147.377 43.5859C144.104 43.5859 141.207 45.1929 139.38 47.6689H139.358C137.209 51.8299 132.944 54.6689 128.028 54.6689C123.112 54.6689 118.848 51.8299 116.699 47.6689H116.716C114.878 45.1929 111.965 43.5859 108.674 43.5859C105.384 43.5859 102.471 45.1929 100.633 47.6689H100.61C98.4494 51.8299 94.1614 54.6689 89.2184 54.6689C84.2754 54.6689 79.9884 51.8299 77.8274 47.6689H77.8224C75.9954 45.1929 73.0974 43.5859 69.8254 43.5859C66.5524 43.5859 63.6554 45.1929 61.8284 47.6689H61.8064C59.6564 51.8299 55.3924 54.6689 50.4764 54.6689C45.5604 54.6689 41.2964 51.8299 39.1474 47.6689H39.1634C37.3264 45.1929 34.4134 43.5859 31.1224 43.5859C27.8324 43.5859 24.9194 45.1929 23.0814 47.6689H23.0584C20.8974 51.8299 16.6094 54.6689 11.6664 54.6689C6.72339 54.6689 2.43639 51.8299 0.275391 47.6689H3.66339C5.49239 50.1439 8.39139 51.7519 11.6664 51.7519C14.9424 51.7519 17.8414 50.1439 19.6704 47.6689H19.6774C21.8484 43.5069 26.1564 40.6689 31.1224 40.6689C36.0894 40.6689 40.3964 43.5069 42.5674 47.6689H42.5174C44.3354 50.1439 47.2194 51.7519 50.4764 51.7519C53.7344 51.7519 56.6174 50.1439 58.4364 47.6689H58.4424C60.6014 43.5069 64.8854 40.6689 69.8254 40.6689C74.7644 40.6689 79.0484 43.5069 81.2074 47.6689H81.2154C83.0444 50.1439 85.9434 51.7519 89.2184 51.7519C92.4944 51.7519 95.3934 50.1439 97.2224 47.6689H97.2294C99.4004 43.5069 103.708 40.6689 108.674 40.6689C113.641 40.6689 117.949 43.5069 120.12 47.6689H120.069C121.887 50.1439 124.771 51.7519 128.028 51.7519C131.286 51.7519 134.169 50.1439 135.988 47.6689H135.994C138.153 43.5069 142.438 40.6689 147.377 40.6689C152.316 40.6689 156.6 43.5069 158.759 47.6689H155.374C153.547 45.1929 150.65 43.5859 147.377 43.5859ZM147.377 23.5859C144.104 23.5859 141.207 25.1929 139.38 27.6679H139.358C137.209 31.8299 132.944 34.6689 128.028 34.6689C123.112 34.6689 118.848 31.8299 116.699 27.6679H116.716C114.878 25.1929 111.965 23.5859 108.674 23.5859C105.384 23.5859 102.471 25.1929 100.633 27.6679H100.61C98.4494 31.8299 94.1614 34.6689 89.2184 34.6689C84.2754 34.6689 79.9884 31.8299 77.8274 27.6679H77.8224C75.9954 25.1929 73.0974 23.5859 69.8254 23.5859C66.5524 23.5859 63.6554 25.1929 61.8284 27.6679H61.8064C59.6564 31.8299 55.3924 34.6689 50.4764 34.6689C45.5604 34.6689 41.2964 31.8299 39.1474 27.6679H39.1634C37.3264 25.1929 34.4134 23.5859 31.1224 23.5859C27.8324 23.5859 24.9194 25.1929 23.0814 27.6679H23.0584C20.8974 31.8299 16.6094 34.6689 11.6664 34.6689C6.72339 34.6689 2.43639 31.8299 0.275391 27.6679H3.66339C5.49239 30.1439 8.39139 31.7519 11.6664 31.7519C14.9424 31.7519 17.8414 30.1439 19.6704 27.6679H19.6774C21.8484 23.5069 26.1564 20.6689 31.1224 20.6689C36.0894 20.6689 40.3964 23.5069 42.5674 27.6679H42.5174C44.3354 30.1439 47.2194 31.7519 50.4764 31.7519C53.7344 31.7519 56.6174 30.1439 58.4364 27.6679H58.4424C60.6014 23.5069 64.8854 20.6689 69.8254 20.6689C74.7644 20.6689 79.0484 23.5069 81.2074 27.6679H81.2154C83.0444 30.1439 85.9434 31.7519 89.2184 31.7519C92.4944 31.7519 95.3934 30.1439 97.2224 27.6679H97.2294C99.4004 23.5069 103.708 20.6689 108.674 20.6689C113.641 20.6689 117.949 23.5069 120.12 27.6679H120.069C121.887 30.1439 124.771 31.7519 128.028 31.7519C131.286 31.7519 134.169 30.1439 135.988 27.6679H135.994C138.153 23.5069 142.438 20.6689 147.377 20.6689C152.316 20.6689 156.6 23.5069 158.759 27.6679H155.374C153.547 25.1929 150.65 23.5859 147.377 23.5859ZM147.377 3.58595C144.104 3.58595 141.207 5.19395 139.38 7.66895H139.358C137.209 11.8299 132.944 14.6689 128.028 14.6689C123.112 14.6689 118.848 11.8299 116.699 7.66895H116.716C114.878 5.19395 111.965 3.58595 108.674 3.58595C105.384 3.58595 102.471 5.19395 100.633 7.66895H100.61C98.4494 11.8299 94.1614 14.6689 89.2184 14.6689C84.2754 14.6689 79.9884 11.8299 77.8274 7.66895H77.8224C75.9954 5.19395 73.0974 3.58595 69.8254 3.58595C66.5524 3.58595 63.6554 5.19395 61.8284 7.66895H61.8064C59.6564 11.8299 55.3924 14.6689 50.4764 14.6689C45.5604 14.6689 41.2964 11.8299 39.1474 7.66895H39.1634C37.3264 5.19395 34.4134 3.58595 31.1224 3.58595C27.8324 3.58595 24.9194 5.19395 23.0814 7.66895H23.0584C20.8974 11.8299 16.6094 14.6689 11.6664 14.6689C6.72339 14.6689 2.43639 11.8299 0.275391 7.66895H3.66339C5.49239 10.1449 8.39139 11.7519 11.6664 11.7519C14.9424 11.7519 17.8414 10.1449 19.6704 7.66895H19.6774C21.8484 3.50695 26.1564 0.668945 31.1224 0.668945C36.0894 0.668945 40.3964 3.50695 42.5674 7.66895H42.5174C44.3354 10.1449 47.2194 11.7519 50.4764 11.7519C53.7344 11.7519 56.6174 10.1449 58.4364 7.66895H58.4424C60.6014 3.50695 64.8854 0.668945 69.8254 0.668945C74.7644 0.668945 79.0484 3.50695 81.2074 7.66895H81.2154C83.0444 10.1449 85.9434 11.7519 89.2184 11.7519C92.4944 11.7519 95.3934 10.1449 97.2224 7.66895H97.2294C99.4004 3.50695 103.708 0.668945 108.674 0.668945C113.641 0.668945 117.949 3.50695 120.12 7.66895H120.069C121.887 10.1449 124.771 11.7519 128.028 11.7519C131.286 11.7519 134.169 10.1449 135.988 7.66895H135.994C138.153 3.50695 142.438 0.668945 147.377 0.668945C152.316 0.668945 156.6 3.50695 158.759 7.66895H155.374C153.547 5.19395 150.65 3.58595 147.377 3.58595ZM11.6664 71.7519C14.9424 71.7519 17.8414 70.1449 19.6704 67.6689H19.6774C21.8484 63.5069 26.1564 60.6689 31.1224 60.6689C36.0894 60.6689 40.3964 63.5069 42.5674 67.6689H42.5174C44.3354 70.1449 47.2194 71.7519 50.4764 71.7519C53.7344 71.7519 56.6174 70.1449 58.4364 67.6689H58.4424C60.6014 63.5069 64.8854 60.6689 69.8254 60.6689C74.7644 60.6689 79.0484 63.5069 81.2074 67.6689H81.2154C83.0444 70.1449 85.9434 71.7519 89.2184 71.7519C92.4944 71.7519 95.3934 70.1449 97.2224 67.6689H97.2294C99.4004 63.5069 103.708 60.6689 108.674 60.6689C113.641 60.6689 117.949 63.5069 120.12 67.6689H120.069C121.887 70.1449 124.771 71.7519 128.028 71.7519C131.286 71.7519 134.169 70.1449 135.988 67.6689H135.994C138.153 63.5069 142.438 60.6689 147.377 60.6689C152.316 60.6689 156.6 63.5069 158.759 67.6689H155.374C153.547 65.1939 150.65 63.5859 147.377 63.5859C144.104 63.5859 141.207 65.1939 139.38 67.6689H139.358C137.209 71.8299 132.944 74.6689 128.028 74.6689C123.112 74.6689 118.848 71.8299 116.699 67.6689H116.716C114.878 65.1939 111.965 63.5859 108.674 63.5859C105.384 63.5859 102.471 65.1939 100.633 67.6689H100.61C98.4494 71.8299 94.1614 74.6689 89.2184 74.6689C84.2754 74.6689 79.9884 71.8299 77.8274 67.6689H77.8224C75.9954 65.1939 73.0974 63.5859 69.8254 63.5859C66.5524 63.5859 63.6554 65.1939 61.8284 67.6689H61.8064C59.6564 71.8299 55.3924 74.6689 50.4764 74.6689C45.5604 74.6689 41.2964 71.8299 39.1474 67.6689H39.1634C37.3264 65.1939 34.4134 63.5859 31.1224 63.5859C27.8324 63.5859 24.9194 65.1939 23.0814 67.6689H23.0584C20.8974 71.8299 16.6094 74.6689 11.6664 74.6689C6.72339 74.6689 2.43639 71.8299 0.275391 67.6689H3.66339C5.49239 70.1449 8.39139 71.7519 11.6664 71.7519Z" fill="#111111"/>
</g>
<defs>
<clipPath id="clip0_98_9047">
<rect width="159" height="74" fill="white" transform="translate(0 0.669922)"/>
</clipPath>
</defs>
</svg>
