<svg width="72" height="73" viewBox="0 0 72 73" fill="none" xmlns="http://www.w3.org/2000/svg">
<path fill-rule="evenodd" clip-rule="evenodd" d="M66 29.9495L60 33.0095V54.7295C56.979 60.8525 43.182 63.7295 34.5 63.7295C24.975 63.7295 12.333 60.7475 9 54.7295V31.3415L0 25.6535L36 9.72949L69 28.4225V54.7295L72 63.7295H63L66 54.7295V29.9495ZM12 33.2345V53.8535C14.874 57.6935 24.651 60.7295 34.5 60.7295C43.182 60.7295 54.267 57.8525 57 53.9225V34.5365L33.231 46.6535L12 33.2345ZM6.357 26.1215L33.39 43.2035L62.667 28.2815L35.835 13.0835L6.357 26.1215Z" fill="white"/>
</svg>
