<svg width="72" height="73" viewBox="0 0 72 73" fill="none" xmlns="http://www.w3.org/2000/svg">
<path fill-rule="evenodd" clip-rule="evenodd" d="M9.83492 12.5975C8.45792 12.5975 7.18592 13.2305 6.52592 14.2535C5.43692 15.9365 5.87192 18.1985 7.58192 19.7495C8.73092 20.7875 10.2459 21.3875 11.7369 21.3875C13.4799 21.3875 15.0159 20.5835 16.0689 19.1225L25.6929 6.00349L24.1869 4.90549L15.4029 16.8035L14.2029 15.1325C13.0329 13.4945 11.4789 12.5975 9.83492 12.5975ZM11.7369 24.3815C9.50792 24.3815 7.26092 23.5025 5.56892 21.9695C3.83492 20.3945 2.91992 18.3365 2.91992 16.2965C2.91992 11.4365 7.19792 9.60049 9.83492 9.60049C11.8599 9.60049 13.7589 10.3955 15.3219 11.8685L23.5479 0.729492L29.8839 5.35249L18.4929 20.8835C16.8669 23.1365 14.4669 24.3815 11.7369 24.3815ZM57.8949 0.864492L54.2949 7.50949L46.8669 8.87449L52.0719 14.3495L51.0759 21.8375L57.8949 18.5795L64.7079 21.8375L63.7149 14.3495L68.9199 8.87449L61.4919 7.50949L57.8949 0.864492ZM57.8949 7.15849L59.5389 10.1975L62.9349 10.8215L60.5559 13.3235L61.0119 16.7495L57.8949 15.2615L54.7779 16.7495L55.2339 13.3235L52.8519 10.8215L56.2479 10.1975L57.8949 7.15849ZM35.9589 18.8405C28.5189 18.8405 22.4769 24.8825 22.4769 32.3225C22.4769 39.7685 28.5189 45.8045 35.9589 45.8045C43.4019 45.8045 49.4439 39.7685 49.4439 32.3225C49.4439 24.8825 43.4019 18.8405 35.9589 18.8405ZM35.9589 21.8375C41.7429 21.8375 46.4469 26.5445 46.4469 32.3225C46.4469 38.1035 41.7429 42.8075 35.9589 42.8075C30.1779 42.8075 25.4739 38.1035 25.4739 32.3225C25.4739 26.5445 30.1779 21.8375 35.9589 21.8375ZM21.0099 69.7325H50.9319V61.3985C50.9319 57.6305 51.5439 56.0405 52.9149 53.9165L55.9869 49.1765C59.4309 43.8845 62.6859 38.8865 64.3629 35.7035C64.5969 35.2595 64.4529 34.7195 64.0269 34.4495C63.5229 34.1225 62.8179 34.2215 62.4189 34.6595C60.4059 36.8615 56.3289 41.1515 50.2959 47.4125L49.1889 48.6005C46.3359 51.7205 44.5989 53.2205 36.3279 53.2205H35.9589C27.3819 53.1785 25.6329 51.6755 22.7859 48.5585L21.7179 47.4125C15.7209 41.1905 11.6409 36.9005 9.59192 34.6595C9.19292 34.2215 8.48792 34.1285 7.98692 34.4495C7.56092 34.7225 7.41992 35.2625 7.65092 35.7035C9.40592 39.0395 13.1349 45.2435 19.0389 54.6725C20.4759 56.9705 21.0099 58.9925 21.0099 62.1395V69.7325ZM53.9289 72.7295H18.0129V62.1395C18.0129 59.5865 17.6169 58.0505 16.5009 56.2655C10.4709 46.6415 6.81692 40.5485 5.00192 37.1015C4.03892 35.2685 4.62392 33.0455 6.36692 31.9265C8.06192 30.8435 10.4499 31.1525 11.8029 32.6345C13.8069 34.8275 17.9799 39.2195 23.8749 45.3335L24.9969 46.5395C27.3549 49.1195 28.3299 50.1875 35.9739 50.2235H36.3279C43.6449 50.2235 44.6199 49.1585 46.9779 46.5785L48.1389 45.3335C54.1539 39.0935 58.2129 34.8215 60.2109 32.6375C61.5669 31.1525 63.9579 30.8435 65.6439 31.9265C67.3899 33.0455 67.9749 35.2685 67.0149 37.1015C65.2689 40.4045 61.9839 45.4595 58.4979 50.8115L55.4319 55.5395C54.3879 57.1625 53.9289 58.2065 53.9289 61.3985V72.7295Z" fill="white"/>
</svg>
