<svg width="72" height="73" viewBox="0 0 72 73" fill="none" xmlns="http://www.w3.org/2000/svg">
<path fill-rule="evenodd" clip-rule="evenodd" d="M52.5519 30.7655C53.0049 31.4555 52.8129 32.3885 52.1199 32.8415L45.5199 37.1735C45.2649 37.3415 44.9829 37.4195 44.6979 37.4195C44.2119 37.4195 43.7319 37.1825 43.4439 36.7445C42.9879 36.0515 43.1829 35.1215 43.8729 34.6685L50.4759 30.3335C51.1659 29.8805 52.0989 30.0665 52.5519 30.7655ZM33.8259 22.9805L37.1589 15.8255C37.5069 15.0695 38.4009 14.7455 39.1509 15.0965C39.9009 15.4475 40.2309 16.3355 39.8769 17.0885L36.5439 24.2465C36.2889 24.7895 35.7489 25.1105 35.1849 25.1105L34.5519 24.9695C33.8019 24.6245 33.4749 23.7305 33.8259 22.9805ZM25.9539 24.8195C30.0849 16.8635 30.4059 9.50749 26.9079 2.96149C26.3739 1.96249 27.1059 0.759492 28.2309 0.759492C28.7619 0.759492 29.2839 1.04449 29.5569 1.55149C33.5469 9.02149 33.2319 17.3135 28.6149 26.2025C28.3479 26.7155 27.8259 27.0095 27.2829 27.0095C27.0489 27.0095 26.8149 26.9555 26.5929 26.8415C25.8579 26.4605 25.5699 25.5545 25.9539 24.8195ZM72.0009 41.3975C72.0009 42.4535 70.9479 43.1615 69.9879 42.8075C61.5639 39.7235 54.2259 40.3445 48.1749 44.6405C47.9109 44.8295 47.6079 44.9195 47.3049 44.9195C46.8399 44.9195 46.3779 44.7005 46.0869 44.2895C45.6069 43.6175 45.7629 42.6785 46.4379 42.2015C53.3409 37.2905 61.6149 36.5495 71.0169 39.9905C71.6259 40.2125 72.0009 40.7885 72.0009 41.3975ZM22.5489 33.5735L31.1439 56.1245L24.3999 59.0165L16.1409 36.4805L18.4749 29.9525L22.5489 33.5735ZM33.9039 54.9455L27.3999 37.8845L42.4749 51.2735L33.9039 54.9455ZM9.09391 56.2025L12.0609 64.2995L5.13991 67.2665L9.09391 56.2025ZM14.5629 40.8935L21.6369 60.1985L14.8239 63.1175L10.6719 51.7865L14.5629 40.8935ZM0.00390625 72.7295L47.9949 52.1705L17.1459 24.7595L0.00390625 72.7295ZM61.3839 25.8425L63.0399 23.7605L63.8829 26.2835L66.3759 27.2105L64.2369 28.7945L64.1229 31.4525L61.9539 29.9045L59.3919 30.6185L60.1959 28.0805L58.7229 25.8635L61.3839 25.8425ZM57.2319 28.4975L55.3149 34.5545L61.4379 32.8505L66.6099 36.5405L66.8769 30.1955L71.9889 26.4215L66.0339 24.2045L64.0179 18.1805L60.0729 23.1545L53.7189 23.2055L57.2319 28.4975ZM50.7309 15.9155C52.5099 15.7835 53.5029 15.4925 53.9529 14.9705C54.4809 14.3585 54.6309 13.0295 54.4479 10.6715C54.3789 9.84349 54.9969 9.12049 55.8249 9.05449C56.6559 9.00649 57.3699 9.59449 57.4359 10.4225C57.6249 12.8405 57.6129 15.2825 56.2299 16.8905C54.9429 18.3875 52.8399 18.6965 50.9499 18.8315C48.8439 18.9875 48.7899 19.5605 48.6279 21.4655C48.4599 23.4755 48.1719 26.6975 43.1079 27.2645C40.0569 27.6095 38.8089 28.2545 38.9769 33.1325C39.0009 33.9575 38.3559 34.1075 37.5249 34.1075H37.4769C36.6699 34.1075 36.0039 34.0415 35.9769 33.2345C35.8299 28.8515 36.5499 25.2695 42.7719 24.5735C45.3939 24.2765 45.4719 23.3615 45.6399 21.3575C45.8019 19.4525 46.0749 16.2575 50.7309 15.9155ZM66.5229 6.77149C67.8849 6.77149 68.9919 7.88149 68.9919 9.24349C68.9919 10.6055 67.8849 11.7125 66.5229 11.7125C65.1609 11.7125 64.0509 10.6055 64.0509 9.24349C64.0509 7.88149 65.1609 6.77149 66.5229 6.77149ZM66.5229 14.7125C69.5409 14.7125 71.9919 12.2615 71.9919 9.24349C71.9919 6.22549 69.5409 3.77449 66.5229 3.77449C63.5019 3.77449 61.0509 6.22549 61.0509 9.24349C61.0509 12.2615 63.5019 14.7125 66.5229 14.7125ZM41.1849 3.72649C42.8409 3.72649 44.1849 5.07349 44.1849 6.72349C44.1849 8.37649 42.8409 9.72049 41.1849 9.72049C39.5289 9.72049 38.1849 8.37649 38.1849 6.72349C38.1849 5.07349 39.5289 3.72649 41.1849 3.72649ZM41.1849 12.7205C44.4939 12.7205 47.1819 10.0325 47.1819 6.72349C47.1819 3.41449 44.4939 0.729492 41.1849 0.729492C37.8729 0.729492 35.1849 3.41449 35.1849 6.72349C35.1849 10.0325 37.8729 12.7205 41.1849 12.7205Z" fill="white"/>
</svg>
